<svg id="facebook_3_" data-name="facebook (3)" xmlns="http://www.w3.org/2000/svg" width="13.822" height="13.822" viewBox="0 0 13.822 13.822">
  <path id="Path_11924" data-name="Path 11924" d="M13.822,6.911a6.913,6.913,0,0,1-5.831,6.827V8.909H9.6l.306-2H7.991v-1.3A1,1,0,0,1,9.117,4.535h.871v-1.7A10.63,10.63,0,0,0,8.442,2.7a2.439,2.439,0,0,0-2.61,2.689V6.911H4.076v2H5.831v4.829a6.912,6.912,0,1,1,7.991-6.827Z" fill="#1877f2"/>
  <path id="Path_11925" data-name="Path 11925" d="M156.525,106.209l.306-2h-1.917v-1.3a1,1,0,0,1,1.126-1.079h.871v-1.7a10.628,10.628,0,0,0-1.547-.135,2.439,2.439,0,0,0-2.61,2.689v1.523H151v2h1.755v4.829a6.984,6.984,0,0,0,2.16,0v-4.829Z" transform="translate(-146.924 -97.3)" fill="#fff"/>
</svg>
