<svg id="google" xmlns="http://www.w3.org/2000/svg" width="13.833" height="13.832" viewBox="0 0 13.833 13.832">
  <path id="Path_11926" data-name="Path 11926" d="M273.224,211.479h-5.642a.451.451,0,0,0-.451.451v1.8a.451.451,0,0,0,.451.451h3.177a4.242,4.242,0,0,1-1.826,2.14l1.355,2.345a6.782,6.782,0,0,0,3.458-5.931,4.569,4.569,0,0,0-.078-.886A.453.453,0,0,0,273.224,211.479Z" transform="translate(-259.914 -205.766)" fill="#167ee6"/>
  <path id="Path_11927" data-name="Path 11927" d="M40.4,335.954a4.209,4.209,0,0,1-3.641-2.107L34.411,335.2a6.911,6.911,0,0,0,9.445,2.535v0L42.5,335.385A4.178,4.178,0,0,1,40.4,335.954Z" transform="translate(-33.481 -324.828)" fill="#12b347"/>
  <path id="Path_11928" data-name="Path 11928" d="M259.458,393.128v0l-1.355-2.345a4.179,4.179,0,0,1-2.1.569v2.706A6.9,6.9,0,0,0,259.458,393.128Z" transform="translate(-249.084 -380.221)" fill="#0f993e"/>
  <path id="Path_11929" data-name="Path 11929" d="M2.706,131.574a4.179,4.179,0,0,1,.569-2.1L.93,128.119a6.885,6.885,0,0,0,0,6.91l2.345-1.352A4.179,4.179,0,0,1,2.706,131.574Z" transform="translate(0 -124.658)" fill="#ffd500"/>
  <path id="Path_11930" data-name="Path 11930" d="M40.4,2.706a4.19,4.19,0,0,1,2.673.96.449.449,0,0,0,.6-.027l1.277-1.277a.454.454,0,0,0-.026-.665A6.9,6.9,0,0,0,34.411,3.461l2.345,1.352A4.209,4.209,0,0,1,40.4,2.706Z" transform="translate(-33.481)" fill="#ff4b26"/>
  <path id="Path_11931" data-name="Path 11931" d="M258.673,3.666a.449.449,0,0,0,.6-.027l1.277-1.277a.455.455,0,0,0-.026-.665A6.9,6.9,0,0,0,256,0V2.706A4.191,4.191,0,0,1,258.673,3.666Z" transform="translate(-249.084)" fill="#d93f21"/>
</svg>
