<?xml version="1.0" encoding="utf-8"?>
<!-- Generator: Adobe Illustrator 16.0.3, SVG Export Plug-In . SVG Version: 6.00 Build 0)  -->
<!DOCTYPE svg PUBLIC "-//W3C//DTD SVG 1.1//EN" "http://www.w3.org/Graphics/SVG/1.1/DTD/svg11.dtd">
<svg version="1.1" id="Capa_1" xmlns="http://www.w3.org/2000/svg" xmlns:xlink="http://www.w3.org/1999/xlink" x="0px" y="0px"
	 width="25px" height="25px" viewBox="5 5 25 25" enable-background="new 5 5 25 25" xml:space="preserve">
<g>
	<g id="_x34__3_">
		<g>
			<path fill="#FD517D" d="M26.875,5H8.125C6.399,5,5,6.399,5,8.125v18.75C5,28.601,6.399,30,8.125,30h18.75
				C28.601,30,30,28.601,30,26.875V8.125C30,6.399,28.601,5,26.875,5z M22.494,13.151l-5.416,9.38
				c-0.041,0.114-0.099,0.224-0.194,0.313c-0.314,0.296-0.809,0.279-1.104-0.036l-3.572-3.294c-0.294-0.314-0.278-0.81,0.036-1.104
				c0.314-0.296,0.809-0.28,1.105,0.035l2.794,2.578l4.997-8.654c0.216-0.373,0.694-0.5,1.067-0.285
				C22.582,12.3,22.71,12.779,22.494,13.151z"/>
		</g>
	</g>
</g>
</svg>
