<?xml version="1.0" encoding="utf-8"?>
<!-- Generator: Adobe Illustrator 16.0.3, SVG Export Plug-In . SVG Version: 6.00 Build 0)  -->
<!DOCTYPE svg PUBLIC "-//W3C//DTD SVG 1.1//EN" "http://www.w3.org/Graphics/SVG/1.1/DTD/svg11.dtd">
<svg version="1.1" id="Capa_1" xmlns="http://www.w3.org/2000/svg" xmlns:xlink="http://www.w3.org/1999/xlink" x="0px" y="0px"
	 width="25px" height="25px" viewBox="5 5 25 25" enable-background="new 5 5 25 25" xml:space="preserve">
<g>
	<g id="_x34__25_">
		<g>
			<path fill="#80CF00" d="M26.875,5H8.125C6.399,5,5,6.399,5,8.125v18.75C5,28.601,6.399,30,8.125,30h18.75
				C28.601,30,30,28.601,30,26.875V8.125C30,6.399,28.601,5,26.875,5z M28.438,26.875c0,0.863-0.699,1.563-1.563,1.563H8.125
				c-0.863,0-1.563-0.699-1.563-1.563V8.125c0-0.863,0.699-1.563,1.563-1.563h18.75c0.863,0,1.563,0.7,1.563,1.563V26.875z
				 M22.208,12.084c-0.372-0.216-0.851-0.088-1.066,0.286l-4.996,8.654l-2.796-2.578c-0.296-0.315-0.788-0.332-1.104-0.037
				c-0.315,0.296-0.332,0.789-0.036,1.104l3.571,3.296c0.296,0.314,0.789,0.33,1.105,0.036c0.095-0.09,5.609-9.693,5.609-9.693
				C22.71,12.779,22.582,12.3,22.208,12.084z"/>
		</g>
	</g>
</g>
</svg>
