<svg id="Слой_1" height="512" viewBox="0 0 512 512" width="512" xmlns="http://www.w3.org/2000/svg" xmlns:xlink="http://www.w3.org/1999/xlink"><linearGradient id="lg1"><stop offset="0" stop-color="#7546d7"/><stop offset=".3715" stop-color="#ab93fc"/><stop offset=".8017" stop-color="#3bcaff"/><stop offset="1" stop-color="#00bdea"/></linearGradient><linearGradient id="SVGID_1_" gradientUnits="userSpaceOnUse" x1="609.319" x2="103.319" xlink:href="#lg1" y1="407.956" y2="-98.044"/><linearGradient id="SVGID_2_" gradientUnits="userSpaceOnUse" x1="407.957" x2="-98.044" xlink:href="#lg1" y1="609.319" y2="103.319"/><linearGradient id="SVGID_3_" gradientUnits="userSpaceOnUse" x1="453.471" x2="-52.529" xlink:href="#lg1" y1="563.804" y2="57.804"/><linearGradient id="SVGID_4_" gradientUnits="userSpaceOnUse" x1="639.901" x2="133.901" xlink:href="#lg1" y1="377.375" y2="-128.625"/><linearGradient id="SVGID_5_" gradientUnits="userSpaceOnUse" x1="377.375" x2="-128.625" xlink:href="#lg1" y1="639.901" y2="133.901"/><linearGradient id="SVGID_8_" gradientUnits="userSpaceOnUse" x1="453.471" x2="-52.53" xlink:href="#lg1" y1="563.805" y2="57.805"/><linearGradient id="SVGID_9_" gradientUnits="userSpaceOnUse" x1="563.805" x2="57.805" xlink:href="#lg1" y1="453.47" y2="-52.53"/><linearGradient id="SVGID_10_" gradientUnits="userSpaceOnUse" x1="651.022" x2="145.022" xlink:href="#lg1" y1="366.253" y2="-139.747"/><linearGradient id="SVGID_11_" gradientUnits="userSpaceOnUse" x1="366.253" x2="-139.747" xlink:href="#lg1" y1="651.023" y2="145.023"/><linearGradient id="SVGID_12_" gradientUnits="userSpaceOnUse" x1="508.638" x2="2.638" xlink:href="#lg1" y1="508.638" y2="2.638"/><linearGradient id="SVGID_13_" gradientUnits="userSpaceOnUse" x1="508.637" x2="2.637" xlink:href="#lg1" y1="508.638" y2="2.638"/><linearGradient id="SVGID_14_" gradientUnits="userSpaceOnUse" x1="407.956" x2="-98.044" xlink:href="#lg1" y1="609.319" y2="103.319"/><linearGradient id="SVGID_15_" gradientUnits="userSpaceOnUse" x1="609.319" x2="103.319" xlink:href="#lg1" y1="407.957" y2="-98.043"/><g><path d="m256 109.274c-10.009 0-18.123-8.113-18.123-18.123v-73.028c0-10.01 8.114-18.123 18.123-18.123s18.123 8.113 18.123 18.123v73.029c0 10.009-8.114 18.122-18.123 18.122z" fill="url(#SVGID_1_)"/><path d="m256 512c-10.009 0-18.123-8.113-18.123-18.123v-73.029c0-10.01 8.114-18.123 18.123-18.123s18.123 8.113 18.123 18.123v73.029c0 10.01-8.114 18.123-18.123 18.123z" fill="url(#SVGID_2_)" opacity=".52"/><path d="m345.901 494.362c-7.146 0-13.918-4.255-16.785-11.277l-27.597-67.613c-3.783-9.267.664-19.846 9.93-23.627 9.26-3.787 19.844.662 23.627 9.928l27.597 67.613c3.783 9.267-.664 19.846-9.93 23.627-2.242.917-4.561 1.349-6.842 1.349z" fill="url(#SVGID_3_)" opacity=".58"/><path d="m318.291 121.503c-2.281 0-4.6-.432-6.842-1.349-9.267-3.78-13.713-14.36-9.93-23.627l27.597-67.613c3.782-9.267 14.36-13.726 23.627-9.929 9.267 3.78 13.713 14.36 9.93 23.627l-27.597 67.613c-2.867 7.024-9.639 11.278-16.785 11.278z" fill="url(#SVGID_4_)" opacity=".94"/><path d="m166.098 494.362c-2.281 0-4.6-.432-6.842-1.349-9.267-3.78-13.713-14.36-9.93-23.627l27.597-67.613c3.783-9.267 14.36-13.716 23.627-9.928 9.267 3.78 13.713 14.36 9.93 23.627l-27.597 67.613c-2.867 7.023-9.639 11.277-16.785 11.277z" fill="url(#SVGID_5_)" opacity=".46"/><path d="m35.769 364.021c-7.146 0-13.918-4.251-16.785-11.277-3.783-9.267.663-19.846 9.929-23.627l67.612-27.598c9.266-3.794 19.845.658 23.628 9.928 3.783 9.267-.663 19.846-9.929 23.627l-67.612 27.598c-2.242.917-4.562 1.349-6.843 1.349z" fill="url(#SVGID_5_)" opacity=".36"/><path d="m408.63 211.83c-7.146 0-13.918-4.251-16.785-11.277-3.783-9.267.663-19.846 9.929-23.627l67.612-27.598c9.263-3.791 19.846.658 23.628 9.929 3.783 9.267-.663 19.846-9.929 23.627l-67.612 27.598c-2.242.916-4.562 1.348-6.843 1.348z" fill="url(#SVGID_4_)" opacity=".82"/><path d="m103.369 211.83c-2.281 0-4.6-.432-6.843-1.349l-67.612-27.598c-9.267-3.78-13.712-14.36-9.929-23.627 3.782-9.267 14.358-13.712 23.628-9.929l67.612 27.598c9.267 3.78 13.712 14.36 9.929 23.627-2.867 7.023-9.64 11.278-16.785 11.278z" fill="url(#SVGID_8_)" opacity=".24"/><path d="m476.23 364.021c-2.281 0-4.6-.432-6.843-1.349l-67.612-27.598c-9.267-3.78-13.712-14.36-9.929-23.627 3.783-9.26 14.359-13.709 23.628-9.928l67.612 27.598c9.267 3.78 13.712 14.36 9.929 23.627-2.867 7.022-9.64 11.277-16.785 11.277z" fill="url(#SVGID_9_)" opacity=".7"/><path d="m372.565 157.557c-4.638 0-9.275-1.77-12.814-5.309-7.077-7.076-7.078-18.551-.001-25.627l51.638-51.639c7.077-7.079 18.552-7.079 25.629 0 7.077 7.076 7.078 18.551.001 25.627l-51.638 51.639c-3.538 3.539-8.177 5.309-12.815 5.309z" fill="url(#SVGID_10_)" opacity=".88"/><path d="m87.796 442.327c-4.638 0-9.275-1.77-12.814-5.309-7.077-7.076-7.078-18.551-.001-25.627l51.638-51.639c7.077-7.079 18.552-7.079 25.629 0 7.077 7.076 7.078 18.551.001 25.627l-51.638 51.639c-3.539 3.539-8.178 5.309-12.815 5.309z" fill="url(#SVGID_11_)" opacity=".4"/><path d="m139.434 157.557c-4.639 0-9.275-1.77-12.815-5.309l-51.638-51.639c-7.077-7.076-7.077-18.551.001-25.627 7.076-7.076 18.551-7.076 25.629 0l51.638 51.639c7.077 7.076 7.077 18.551-.001 25.627-3.538 3.539-8.177 5.309-12.814 5.309z" fill="url(#SVGID_12_)" opacity=".18"/><path d="m424.203 442.327c-4.639 0-9.275-1.77-12.815-5.309l-51.638-51.639c-7.077-7.076-7.076-18.551.001-25.627s18.552-7.076 25.629 0l51.638 51.639c7.077 7.076 7.077 18.551-.001 25.627-3.537 3.539-8.176 5.309-12.814 5.309z" fill="url(#SVGID_13_)" opacity=".64"/><path d="m91.15 274.123h-73.026c-10.009 0-18.123-8.113-18.123-18.123s8.114-18.123 18.123-18.123h73.026c10.009 0 18.123 8.113 18.123 18.123s-8.114 18.123-18.123 18.123z" fill="url(#SVGID_14_)" opacity=".3"/><path d="m493.876 274.123h-73.028c-10.009 0-18.123-8.113-18.123-18.123s8.114-18.123 18.123-18.123h73.028c10.009 0 18.123 8.113 18.123 18.123s-8.113 18.123-18.123 18.123z" fill="url(#SVGID_15_)" opacity=".76"/></g></svg>