<?xml version="1.0" encoding="utf-8"?>
<!-- Generator: Adobe Illustrator 16.0.3, SVG Export Plug-In . SVG Version: 6.00 Build 0)  -->
<!DOCTYPE svg PUBLIC "-//W3C//DTD SVG 1.1//EN" "http://www.w3.org/Graphics/SVG/1.1/DTD/svg11.dtd">
<svg version="1.1" id="Layer_1" xmlns="http://www.w3.org/2000/svg" xmlns:xlink="http://www.w3.org/1999/xlink" x="0px" y="0px"
	 width="500px" height="600px" viewBox="0 0 500 600" enable-background="new 0 0 500 600" xml:space="preserve">
<path fill="#FFFFFF" d="M287.429,512.65v-48.086v-21.129V89.35c0-31.329-22.586-37.157-36.429-37.157s-36.429,5.829-36.429,37.157
	v423.3c0,31.328,22.586,36.428,36.429,36.428S287.429,543.979,287.429,512.65 M336.972,77.693c4.371,2.915,7.285,8.014,7.285,14.571
	v350.443v34.243v33.514c0,6.558-2.914,10.929-7.285,14.571l-14.571,9.472c-10.929,7.286-18.943,12.386-26.958,16.758
	c0,0.729,0,0.729-0.729,0.729C276.5,562.193,266.3,565.107,251,565.107s-26.229-2.914-43.714-13.114v-0.729h-0.729
	c-7.286-4.372-16.028-9.472-26.229-16.758l-14.571-9.472c-5.1-2.914-8.015-8.014-8.015-14.571v-418.2
	c0-6.557,2.915-10.928,8.015-14.571l10.928-7.286C216.028,44.179,230.6,36.893,251,36.893c21.857,0,34.243,7.286,74.314,33.514
	L336.972,77.693z"/>
</svg>
